<svg width="100" height="100" viewBox="0 0 100 101" fill="none" xmlns="http://www.w3.org/2000/svg">
<path d="M99.3718 1.98901H1.60645V99.2112H99.3718V1.98901Z" fill="#F7DF1E"/>
<path d="M67.2804 77.9443C69.2496 81.1419 71.8117 83.4922 76.343 83.4922C80.1497 83.4922 82.5814 81.6002 82.5814 78.986C82.5814 75.8533 80.083 74.7437 75.893 72.9212L73.5963 71.9412C66.9669 69.1326 62.5628 65.6141 62.5628 58.1758C62.5628 51.324 67.8126 46.1079 76.0172 46.1079C81.8583 46.1079 86.0575 48.1295 89.0836 53.4227L81.9296 57.9906C80.3545 55.182 78.6553 54.0755 76.0172 54.0755C73.3263 54.0755 71.6208 55.773 71.6208 57.9906C71.6208 60.7314 73.3278 61.8409 77.2695 63.5385L79.5662 64.5169C87.3719 67.8456 91.7791 71.2391 91.7791 78.8687C91.7791 87.094 85.2816 91.6002 76.5556 91.6002C68.0237 91.6002 62.5116 87.557 59.8145 82.2576L67.2804 77.9443ZM34.8269 78.736C36.2701 81.2823 37.583 83.4351 40.7394 83.4351C43.7577 83.4351 45.6618 82.2607 45.6618 77.6943V46.6295H54.8486V77.8178C54.8486 87.2777 49.2714 91.5832 41.1304 91.5832C33.7748 91.5832 29.515 87.7977 27.3486 83.2383L34.8269 78.736Z" fill="black"/>
</svg>
