<svg width="194" height="38" viewBox="0 0 194 38" fill="none" xmlns="http://www.w3.org/2000/svg">
<g id="lezzform">
<path d="M13.5823 2.42514L7.7983 36.4828H0.55127L6.33529 2.42514H13.5823Z" fill="#6366F0"/>
<path d="M42.1962 36.4828L42.8937 32.2588L58.2894 16.7766L58.3574 16.5937H46.0068L46.9765 10.9396H68.0712L67.3226 15.546L52.7435 30.6458L52.6755 30.8287H65.1281L64.1925 36.4828H42.1962Z" fill="#6366F0"/>
<path d="M69.6575 36.4828L70.355 32.2588L85.7507 16.7766L85.8187 16.5937H73.4682L74.4378 10.9396H95.5325L94.784 15.546L80.2048 30.6458L80.1368 30.8287H92.5894L91.6538 36.4828H69.6575Z" fill="#6366F0"/>
<path d="M123.632 37.0149C121.454 37.0149 119.611 36.444 118.103 35.3021C116.606 34.1491 115.54 32.5637 114.905 30.546C114.27 28.5282 114.173 26.2223 114.615 23.628C115.046 21.1003 115.897 18.8553 117.167 16.893C118.449 14.9196 120.014 13.373 121.863 12.2533C123.711 11.1225 125.696 10.5571 127.817 10.5571C130.006 10.5571 131.848 11.1391 133.346 12.3032C134.854 13.4562 135.926 15.0471 136.561 17.0759C137.196 19.0937 137.304 21.3941 136.884 23.9772C136.453 26.4939 135.591 28.7389 134.298 30.7123C133.017 32.6746 131.452 34.2156 129.603 35.3353C127.754 36.4551 125.764 37.0149 123.632 37.0149ZM123.666 35.1358C125.526 35.1358 127.238 34.6258 128.803 33.6059C130.368 32.5859 131.678 31.2056 132.733 29.4651C133.799 27.7245 134.508 25.7788 134.86 23.628C135.211 21.5438 135.16 19.6591 134.706 17.9739C134.253 16.2777 133.442 14.9362 132.274 13.9495C131.106 12.9517 129.626 12.4529 127.834 12.4529C125.985 12.4529 124.273 12.9684 122.696 13.9994C121.131 15.0305 119.815 16.4163 118.749 18.1568C117.683 19.8974 116.974 21.8376 116.623 23.9772C116.26 26.0504 116.305 27.9351 116.759 29.6313C117.224 31.3165 118.041 32.658 119.209 33.6557C120.388 34.6424 121.874 35.1358 123.666 35.1358Z" fill="#6366F0"/>
<path d="M141.89 36.4828L146.245 10.9396H148.269L147.589 14.9307H147.776C148.547 13.6225 149.681 12.5748 151.178 11.7877C152.675 10.9894 154.286 10.5903 156.009 10.5903C156.202 10.5903 156.384 10.5903 156.554 10.5903C156.724 10.5903 156.894 10.5959 157.064 10.607L156.707 12.6524C156.571 12.6413 156.406 12.6247 156.214 12.6025C156.032 12.5693 155.805 12.5526 155.533 12.5526C154.081 12.5526 152.738 12.8575 151.501 13.4673C150.265 14.077 149.233 14.9196 148.405 15.995C147.577 17.0593 147.05 18.2788 146.823 19.6535L143.965 36.4828H141.89Z" fill="#6366F0"/>
<path d="M158.217 36.4828L162.572 10.9396H164.596L163.916 14.7976H164.12C164.857 13.5227 165.9 12.5083 167.25 11.7544C168.611 10.9894 170.153 10.607 171.877 10.607C173.76 10.607 175.206 11.0504 176.215 11.9373C177.225 12.8243 177.865 14.0271 178.138 15.546H178.325C179.073 14.0382 180.185 12.8409 181.659 11.954C183.145 11.056 184.857 10.607 186.797 10.607C189.314 10.607 191.106 11.3886 192.172 12.9517C193.25 14.5039 193.556 16.6325 193.091 19.3376L190.165 36.4828H188.09L191.016 19.3376C191.367 17.1979 191.14 15.5238 190.335 14.3154C189.53 13.0959 188.118 12.4861 186.099 12.4861C183.944 12.4861 182.164 13.1458 180.757 14.4651C179.351 15.7843 178.478 17.4639 178.138 19.5039L175.229 36.4828H173.153L176.096 19.2045C176.425 17.209 176.204 15.5903 175.433 14.3486C174.662 13.107 173.25 12.4861 171.197 12.4861C169.825 12.4861 168.571 12.7965 167.437 13.4174C166.303 14.0382 165.362 14.8919 164.613 15.9784C163.865 17.0648 163.377 18.3121 163.15 19.72L160.292 36.4828H158.217Z" fill="#6366F0"/>
<path fill-rule="evenodd" clip-rule="evenodd" d="M25.4438 36.9817C22.7673 36.9817 20.5501 36.4495 18.7922 35.3852C17.0343 34.3098 15.7981 32.791 15.0836 30.8287C14.3805 28.8553 14.2614 26.5216 14.7264 23.8276C15.18 21.2001 16.093 18.8941 17.4653 16.9096C18.8489 14.9251 20.5841 13.3786 22.6709 12.2699C24.7577 11.1613 27.0826 10.607 29.6457 10.607C31.3696 10.607 32.929 10.8786 34.324 11.4218C35.7303 11.954 36.8984 12.7633 37.8284 13.8498C38.7584 14.9251 39.3935 16.2721 39.7337 17.8908C40.0853 19.5094 40.0796 21.4052 39.7167 23.5781L39.3935 25.5238H21.5987L21.5651 25.7067C21.3383 27.0482 21.3837 28.1624 21.7012 29.0493C22.0301 29.9362 22.5972 30.6014 23.4024 31.0449C24.2076 31.4772 25.2283 31.6934 26.4645 31.6934C27.2697 31.6934 28.0239 31.5826 28.7271 31.3608C29.4416 31.1391 30.0767 30.8121 30.6324 30.3797C31.1881 29.9362 31.6418 29.3874 31.9934 28.7333L38.611 29.1657C37.9985 30.74 37.0686 32.1147 35.821 33.2899C34.5735 34.454 33.0708 35.3631 31.3129 36.0172C29.5663 36.6602 27.61 36.9817 25.4438 36.9817ZM33.0821 18.4229C33.3883 19.2101 33.4564 20.1136 33.2863 21.1336H22.4093C22.6079 20.2515 22.9956 19.4311 23.5725 18.6724C24.2076 17.8409 24.9902 17.1702 25.9201 16.6602C26.8501 16.1502 27.8481 15.8952 28.9142 15.8952C29.9576 15.8952 30.8366 16.1225 31.551 16.577C32.2655 17.0205 32.7759 17.6358 33.0821 18.4229Z" fill="#6366F0"/>
<path d="M112.838 10.9396L112.532 12.7522H106.787L102.75 36.4828H100.708L104.743 12.7522H100.929L101.253 10.9396H105.051L105.727 6.96505C105.931 5.67902 106.407 4.58146 107.156 3.67237C107.916 2.76328 108.829 2.07038 109.895 1.59366C110.961 1.11694 112.067 0.87858 113.212 0.87858C113.813 0.87858 114.312 0.922925 114.709 1.01162C115.106 1.10031 115.452 1.20009 115.747 1.31095L114.862 3.10696C114.613 3.04044 114.346 2.97392 114.063 2.90741C113.779 2.84089 113.427 2.80763 113.008 2.80763C111.704 2.80763 110.553 3.2012 109.554 3.98834C108.568 4.76439 107.955 5.86195 107.717 7.28102L107.095 10.9396H112.838Z" fill="#6366F0"/>
</g>
</svg>
