<svg width="100" height="100" viewBox="0 0 100 101" fill="none" xmlns="http://www.w3.org/2000/svg">
<path d="M24.3291 36.6385H42.6661V38.089H26.01V49.0055H41.6728V50.4559H26.01V62.4412H42.8571V63.8917H24.3291V36.6385ZM44.3088 36.6385H46.2571L54.8908 48.6238L63.7155 36.6385L75.7185 21.4144L55.9986 49.8834L66.1604 63.8917H64.1357L54.8908 51.143L45.6077 63.8917H43.6212L53.8593 49.8834L44.3088 36.6385ZM66.8862 38.089V36.6385H87.7828V38.089H78.1558V63.8917H76.4749V38.089H66.8862Z" fill="white"/>
<path d="M1.38867 36.6384H3.48979L32.4629 79.7857L20.4897 63.8916L3.14597 38.6996L3.06956 63.8916H1.38867V36.6384Z" fill="white"/>
<path d="M87.6137 62.0034C87.9612 62.0034 88.2147 61.7386 88.2147 61.3964C88.2147 61.0542 87.9612 60.7894 87.6137 60.7894C87.2703 60.7894 87.0127 61.0542 87.0127 61.3964C87.0127 61.7386 87.2703 62.0034 87.6137 62.0034ZM89.2654 60.4064C89.2654 61.4168 89.9972 62.0768 91.0642 62.0768C92.2008 62.0768 92.8876 61.3964 92.8876 60.215V56.0554H91.9718V60.2109C91.9718 60.8668 91.6407 61.2172 91.056 61.2172C90.5327 61.2172 90.177 60.8912 90.1648 60.4064H89.2654ZM94.0855 60.3535C94.1509 61.4046 95.0299 62.0768 96.3381 62.0768C97.7363 62.0768 98.6112 61.372 98.6112 60.2476C98.6112 59.3635 98.1125 58.8746 96.9023 58.5935L96.2523 58.4346C95.4837 58.2554 95.173 58.015 95.173 57.5954C95.173 57.0658 95.6554 56.7195 96.379 56.7195C97.0659 56.7195 97.5401 57.0576 97.6259 57.5995H98.5172C98.4641 56.6095 97.5892 55.9128 96.3913 55.9128C95.1035 55.9128 94.2449 56.6095 94.2449 57.6565C94.2449 58.5202 94.7314 59.0335 95.7985 59.282L96.5589 59.4653C97.3398 59.6487 97.6832 59.9176 97.6832 60.3657C97.6832 60.8872 97.1435 61.266 96.4076 61.266C95.6186 61.266 95.0708 60.9116 94.9931 60.3535H94.0855Z" fill="white"/>
</svg>
