<svg width="100" height="100" viewBox="0 0 100 101" fill="none" xmlns="http://www.w3.org/2000/svg">
<path d="M50.4884 59.1715C55.2486 59.1715 59.1076 55.334 59.1076 50.6001C59.1076 45.8663 55.2486 42.0288 50.4884 42.0288C45.7281 42.0288 41.8691 45.8663 41.8691 50.6001C41.8691 55.334 45.7281 59.1715 50.4884 59.1715Z" fill="#61DAFB"/>
<path fill-rule="evenodd" clip-rule="evenodd" d="M9.96134 46.0901C8.00673 47.8447 7.36426 49.3746 7.36426 50.6001C7.36426 51.8256 8.00673 53.3554 9.96134 55.1101C11.9146 56.8636 14.9174 58.5858 18.8947 60.096C26.8273 63.1079 37.9966 65.0359 50.4887 65.0359C62.9809 65.0359 74.1502 63.1079 82.0828 60.096C86.0601 58.5858 89.0629 56.8636 91.0162 55.1101C92.9708 53.3554 93.6132 51.8256 93.6132 50.6001C93.6132 49.3746 92.9708 47.8447 91.0162 46.0901C89.0629 44.3366 86.0601 42.6144 82.0828 41.1042C74.1502 38.0923 62.9809 36.1643 50.4887 36.1643C37.9966 36.1643 26.8273 38.0923 18.8947 41.1042C14.9174 42.6144 11.9146 44.3366 9.96134 46.0901ZM16.6761 35.2612C25.4826 31.9175 37.438 29.9143 50.4887 29.9143C63.5395 29.9143 75.4949 31.9175 84.3014 35.2612C88.6936 36.929 92.4639 38.9908 95.1913 41.4392C97.9174 43.8864 99.8632 46.9763 99.8632 50.6001C99.8632 54.2239 97.9174 57.3138 95.1913 59.761C92.4639 62.2094 88.6936 64.2712 84.3014 65.9389C75.4949 69.2827 63.5395 71.2859 50.4887 71.2859C37.438 71.2859 25.4826 69.2827 16.6761 65.9389C12.2839 64.2712 8.51362 62.2094 5.78621 59.761C3.06011 57.3138 1.11426 54.2239 1.11426 50.6001C1.11426 46.9763 3.06011 43.8864 5.78621 41.4392C8.51362 38.9908 12.2839 36.929 16.6761 35.2612Z" fill="#61DAFB"/>
<path fill-rule="evenodd" clip-rule="evenodd" d="M34.1776 13.449C31.6754 12.644 30.0133 12.8516 28.9328 13.4719C27.8523 14.0923 26.8405 15.4199 26.2904 17.9774C25.7403 20.535 25.7419 23.9798 26.415 28.1575C27.7575 36.4904 31.6613 47.0693 37.9055 57.8245C44.1497 68.5797 51.4106 77.2312 57.9962 82.5539C61.2979 85.2224 64.297 86.9462 66.7994 87.7512C69.3016 88.5562 70.9637 88.3486 72.0442 87.7283C73.1247 87.1079 74.1365 85.7803 74.6866 83.2228C75.2367 80.6652 75.2351 77.2204 74.562 73.0427C73.2195 64.7098 69.3157 54.1309 63.0715 43.3757C56.8273 32.6205 49.5664 23.969 42.9808 18.6463C39.6791 15.9778 36.68 14.254 34.1776 13.449ZM46.9205 13.8074C54.2394 19.7227 61.9644 29.021 68.4916 40.2637C75.0189 51.5065 79.2539 62.8084 80.7459 72.0692C81.4901 76.6884 81.5797 80.9687 80.8109 84.5431C80.042 88.1178 78.3248 91.3291 75.1823 93.1334C72.0397 94.9376 68.3845 94.8108 64.8871 93.6857C61.3898 92.5606 57.7071 90.3433 54.0565 87.3928C46.7376 81.4775 39.0126 72.1792 32.4854 60.9365C25.9581 49.6937 21.7231 38.3918 20.2311 29.131C19.4869 24.5118 19.3973 20.2315 20.1661 16.657C20.935 13.0824 22.6521 9.87112 25.7947 8.06684C28.9373 6.26256 32.5925 6.38936 36.0899 7.51452C39.5872 8.63962 43.2699 10.8569 46.9205 13.8074Z" fill="#61DAFB"/>
<path fill-rule="evenodd" clip-rule="evenodd" d="M74.6867 17.9774C74.1367 15.4199 73.1248 14.0923 72.0443 13.4719C70.9639 12.8516 69.3017 12.644 66.7995 13.449C64.2972 14.254 61.298 15.9778 57.9963 18.6463C51.4107 23.969 44.1499 32.6205 37.9057 43.3757C31.6615 54.1308 27.7576 64.7098 26.4151 73.0427C25.742 77.2204 25.7404 80.6652 26.2905 83.2228C26.8406 85.7802 27.8524 87.1079 28.9329 87.7282C30.0134 88.3486 31.6755 88.5562 34.1777 87.7512C36.6801 86.9461 39.6793 85.2224 42.9809 82.5539C49.5665 77.2312 56.8274 68.5797 63.0716 57.8245C69.3158 47.0693 73.2197 36.4904 74.5622 28.1574C75.2352 23.9798 75.2368 20.535 74.6867 17.9774ZM80.7461 29.131C79.2541 38.3918 75.019 49.6937 68.4918 60.9365C61.9645 72.1792 54.2396 81.4774 46.9207 87.3928C43.2701 90.3433 39.5873 92.5606 36.0901 93.6857C32.5926 94.8108 28.9374 94.9376 25.7949 93.1333C22.6523 91.3291 20.9351 88.1177 20.1663 84.5431C19.3975 80.9687 19.487 76.6884 20.2312 72.0692C21.7232 62.8084 25.9582 51.5064 32.4855 40.2637C39.0127 29.021 46.7377 19.7227 54.0566 13.8074C57.7072 10.8569 61.39 8.63961 64.8872 7.51451C68.3846 6.38935 72.0398 6.26255 75.1824 8.06683C78.325 9.87111 80.0422 13.0824 80.811 16.657C81.5798 20.2315 81.4903 24.5118 80.7461 29.131Z" fill="#61DAFB"/>
</svg>
