<svg width="71" height="60" viewBox="0 0 71 60" fill="none" xmlns="http://www.w3.org/2000/svg">
<g id="Union">
<path d="M27.3463 56.6788L0 29.9468L5.29283 24.7728L32.6391 51.5049C34.1007 52.9336 36.4704 52.9336 37.932 51.5049L65.2783 24.7728L70.5711 29.9468L43.2248 56.6788C38.8401 60.9651 31.731 60.9651 27.3463 56.6788Z" fill="#6366F0"/>
<path d="M43.2248 3.21468L61.7497 21.3235L56.4569 26.4975L37.932 8.38863C36.4704 6.95989 34.1007 6.95989 32.6392 8.38863L27.3463 13.5626L48.5177 34.2584L43.2248 39.4323L22.0535 18.7365L14.1142 26.4975L8.8214 21.3235L27.3463 3.21468C31.731 -1.07156 38.8401 -1.07156 43.2248 3.21468Z" fill="#6366F0"/>
</g>
</svg>
